<?xml version="1.0" encoding="utf-8"?>
<!-- Generator: Adobe Illustrator 17.1.0, SVG Export Plug-In . SVG Version: 6.00 Build 0)  -->
<!DOCTYPE svg PUBLIC "-//W3C//DTD SVG 1.1//EN" "http://www.w3.org/Graphics/SVG/1.1/DTD/svg11.dtd">
<svg version="1.1" id="Layer_1" xmlns="http://www.w3.org/2000/svg" xmlns:xlink="http://www.w3.org/1999/xlink" x="0px" y="0px"
	 viewBox="0 0 765.278 211.111" enable-background="new 0 0 765.278 211.111" xml:space="preserve">
<g>
	<path fill="#FFFFFF" d="M274.702,39.406c-12.114-12.475-29.63-18.713-52.55-18.713c-22.921,0-40.438,6.239-52.55,18.713
		c-16.248,14.725-24.371,36.774-24.371,66.149c0,3.065,0.112,6.037,0.296,8.949c-2.069-3.067-4.614-5.797-7.642-8.187
		c-6.157-4.858-15.401-8.74-27.737-11.642l-28.143-6.637c-10.859-2.538-17.96-4.75-21.306-6.637
		c-5.206-2.829-7.808-7.107-7.808-12.838c0-6.237,2.638-11.098,7.918-14.579s12.344-5.223,21.194-5.223
		c7.956,0,14.609,1.343,19.964,4.026c8.031,4.063,12.344,10.917,12.938,20.563h32.205c-0.588-17.044-6.921-30.045-18.999-39.004
		c-12.08-8.957-26.673-13.437-43.78-13.437c-20.486,0-36.016,4.751-46.589,14.252C27.17,44.665,21.884,56.596,21.884,70.957
		c0,15.74,5.402,27.308,16.211,34.707c6.381,4.425,18.104,8.524,35.169,12.295l17.362,3.808c10.163,2.176,17.584,4.679,22.267,7.507
		c4.678,2.902,7.019,7.001,7.019,12.295c0,9.067-4.777,15.269-14.331,18.604c-5.035,1.74-11.59,2.611-19.662,2.611
		c-13.479,0-22.996-3.3-28.549-9.901c-3.037-3.626-5.073-9.102-6.11-16.429H19.273c0,16.684,6.047,29.794,18.144,39.331
		c12.097,9.539,28.703,14.308,49.816,14.308c20.673,0,36.674-4.842,48-14.525c9.738-8.324,15.279-18.491,16.645-30.488
		c4.054,10.415,9.948,19.302,17.724,26.626c12.112,12.477,29.629,18.714,52.55,18.714c22.919,0,40.436-6.237,52.55-18.714
		c16.174-15.303,24.262-37.354,24.262-66.15C298.964,76.18,290.876,54.131,274.702,39.406z M253.758,147.334
		c-7.798,9.792-18.333,14.688-31.606,14.688s-23.864-4.896-31.769-14.688c-7.907-9.792-11.859-23.718-11.859-41.779
		c0-18.061,3.952-31.987,11.859-41.778c7.905-9.792,18.496-14.688,31.769-14.688s23.808,4.915,31.606,14.742
		c7.796,9.829,11.696,23.737,11.696,41.724C265.454,123.616,261.554,137.542,253.758,147.334z"/>
	<path fill="#FFFFFF" d="M742.955,75.309c-2.033-9.283-5.843-17.914-11.433-25.894c-6.97-9.863-16.08-16.646-27.33-20.345
		c-6.606-2.176-14.88-3.335-24.825-3.481h-69.143v148.755L557.595,25.588h-37.916L465.1,178.484
		c-1.147-1.589-1.969-3.479-2.441-5.691c-0.59-2.61-0.884-7.578-0.884-14.905v-10.771c0-11.241-1.542-19.601-4.624-25.077
		c-3.084-5.477-8.323-9.7-15.722-12.676c8.849-3.046,15.194-8.25,19.04-15.613c3.844-7.361,5.766-14.851,5.766-22.467
		c0-6.31-0.991-11.93-2.972-16.864c-1.98-4.932-4.668-9.428-8.062-13.491c-4.103-4.932-9.106-8.667-15.013-11.207
		c-5.905-2.538-14.341-3.917-25.303-4.134h-76.706v160.37h32.748v-62.886h32.729c9.329,0,15.694,1.705,19.091,5.113
		c3.396,3.41,5.163,10.228,5.301,20.454l0.217,14.906c0.071,4.716,0.544,9.32,1.415,13.817c0.435,2.176,1.159,5.042,2.176,8.595
		h30.577h6.414h28.638l10.872-32.966h59.057l10.583,32.966h32.229h4.109h65.033c24.245,0,42.175-9.972,53.789-29.92
		c8.564-14.797,12.849-32.857,12.849-54.182C746.005,93.443,744.988,84.595,742.955,75.309z M423.11,93.914
		c-3.583,1.741-8.955,2.611-16.119,2.611h-36.063V53.441h36.993c6.889,0,12.055,0.943,15.499,2.829
		c6.13,3.337,9.197,9.865,9.197,19.584C432.617,84.848,429.448,90.868,423.11,93.914z M517.471,125.356l20.812-63.103l20.259,63.103
		H517.471z M706.829,134.714c-6.247,15.596-17.289,23.392-33.126,23.392h-30.948V53.441h30.948c15.256,0,25.443,4.371,30.565,13.11
		c5.12,8.741,7.683,21.27,7.683,37.59C711.951,115.965,710.242,126.156,706.829,134.714z"/>
</g>
</svg>
