<?xml version="1.0" encoding="utf-8"?>
<!-- Generator: Adobe Illustrator 17.1.0, SVG Export Plug-In . SVG Version: 6.00 Build 0)  -->
<!DOCTYPE svg PUBLIC "-//W3C//DTD SVG 1.1//EN" "http://www.w3.org/Graphics/SVG/1.1/DTD/svg11.dtd">
<svg version="1.1" id="Layer_1" xmlns="http://www.w3.org/2000/svg" xmlns:xlink="http://www.w3.org/1999/xlink" x="0px" y="0px"
	 viewBox="0 0 32 32" enable-background="new 0 0 32 32" xml:space="preserve">
<path d="M4,29c0-1.7,1.3-3,3-3s3,1.3,3,3s-1.3,3-3,3S4,30.7,4,29z M24,29c0-1.7,1.3-3,3-3s3,1.3,3,3s-1.3,3-3,3S24,30.7,24,29z
	 M30,16V4H4c0-2.2-1.8-4-4-4v2c1.1,0,2,0.9,2,2l1.5,12.9C2.6,17.6,2,18.7,2,20c0,2.2,1.8,4,4,4h24v-2H6c-1.1,0-2-0.9-2-2
	c0,0,0,0,0,0C4,20,30,16,30,16z"/>
</svg>
